# xmcd
#
# Track frame offsets: 
#        150
#        3992
#        18987
#        28760
#        35122
#        50277
#        57955
#        74297
#        86305
#        108732
#        122732
#        129987
#        145292
#        151062
#        166782
#        172572
#        195020
#        203595
#        223145
#
# Disc length: 3037 seconds
#
# Revision: 0
# Processed by: cddbd v1.5.2PL0 Copyright (c) Steve Scherf et al.
# Submitted via: ExactAudioCopy v1.0b1
#
DISCID=f00bdb13
DTITLE=T. Rex  - Unchained- Unreleased Recordings Volume 3- 1973 Part 
DTITLE=1
DYEAR=1900
DGENRE=
TTITLE0=Organ Thing (Instrumental)
TTITLE1=Dance In The Midnight (Version 1)
TTITLE2=Delanie (Everyday) (Version 2)
TTITLE3=I Wanna Go
TTITLE4=Saturday Night (Version 1)
TTITLE5=Down Home Lady (Version 2)
TTITLE6=Hope You Enjoy The Show (Version 1)
TTITLE7=All My Love (Version 1)
TTITLE8=This Is My Life
TTITLE9=Mr .Motion
TTITLE10=Big Black Cat
TTITLE11=Saturation Syncopation (All Alone) (Version 2)
TTITLE12=Down Home Lady (Version 1)
TTITLE13=Metropolis Incarnate (Version 1)
TTITLE14=Misfortune Gatehouse
TTITLE15=You Move Like A Dog
TTITLE16=Saturday Night (Version 2)
TTITLE17=Sky Church Music
TTITLE18=Dance In The Midnight (Version 2)
EXTD=
EXTT0=
EXTT1=
EXTT2=
EXTT3=
EXTT4=
EXTT5=
EXTT6=
EXTT7=
EXTT8=
EXTT9=
EXTT10=
EXTT11=
EXTT12=
EXTT13=
EXTT14=
EXTT15=
EXTT16=
EXTT17=
EXTT18=
PLAYORDER=
